<?xml version="1.0" encoding="utf-8"?>
<!-- Generator: Adobe Illustrator 21.0.0, SVG Export Plug-In . SVG Version: 6.00 Build 0)  -->
<svg xmlns="http://www.w3.org/2000/svg" xmlns:xlink="http://www.w3.org/1999/xlink" version="1.1" id="Layer_1" x="0px" y="0px" width="1400px" height="980px" viewBox="0 0 1400 980" style="enable-background:new 0 0 1400 980;" xml:space="preserve">
<style type="text/css">
	.st0{fill-rule:evenodd;clip-rule:evenodd;fill:#E8EFE2;}
	.st1{fill-rule:evenodd;clip-rule:evenodd;fill:#612424;}
	.st2{fill-rule:evenodd;clip-rule:evenodd;fill:#E4C3A8;}
	.st3{fill-rule:evenodd;clip-rule:evenodd;fill:#D0AB8B;}
	.st4{fill-rule:evenodd;clip-rule:evenodd;fill:#FADABF;}
	.st5{fill-rule:evenodd;clip-rule:evenodd;fill:#EDCCB2;}
	.st6{fill-rule:evenodd;clip-rule:evenodd;fill:#EDCCB1;}
	.st7{fill-rule:evenodd;clip-rule:evenodd;fill:#F4B29D;}
	.st8{fill-rule:evenodd;clip-rule:evenodd;fill:#2E0803;}
	.st9{fill-rule:evenodd;clip-rule:evenodd;fill:#FFFFFF;}
	.st10{fill-rule:evenodd;clip-rule:evenodd;fill:#722F1C;}
	.st11{fill-rule:evenodd;clip-rule:evenodd;fill:#7B331F;}
	.st12{fill-rule:evenodd;clip-rule:evenodd;fill:#B27443;}
	.st13{fill-rule:evenodd;clip-rule:evenodd;fill:#5E1D14;}
	.st14{fill-rule:evenodd;clip-rule:evenodd;fill:#F7C7B9;}
	.st15{fill-rule:evenodd;clip-rule:evenodd;fill:#F3A791;}
	.st16{fill-rule:evenodd;clip-rule:evenodd;fill:#B7C1A8;}
	.st17{fill-rule:evenodd;clip-rule:evenodd;fill:#D3D9CD;}
	.st18{fill-rule:evenodd;clip-rule:evenodd;fill:#F5F8EE;}
	.st19{fill-rule:evenodd;clip-rule:evenodd;fill:#A9B39C;}
	.st20{fill-rule:evenodd;clip-rule:evenodd;fill:#EF9296;}
	.st21{fill-rule:evenodd;clip-rule:evenodd;fill:#F2A9AC;}
	.st22{fill-rule:evenodd;clip-rule:evenodd;fill:#FCEADD;}
	.st23{fill-rule:evenodd;clip-rule:evenodd;fill:#CC9369;}
	.st24{fill-rule:evenodd;clip-rule:evenodd;fill:#8E5649;}
	.st25{fill-rule:evenodd;clip-rule:evenodd;fill:#F3ADAF;}
	.st26{fill-rule:evenodd;clip-rule:evenodd;fill:#A9DAE4;}
	.st27{fill-rule:evenodd;clip-rule:evenodd;fill:#D1EBF6;}
	.st28{fill-rule:evenodd;clip-rule:evenodd;fill:#C5A284;}
	.st29{fill-rule:evenodd;clip-rule:evenodd;fill:#8D7765;}
</style>
<g>
	
	<g>
		<ellipse class="st1" cx="702.5" cy="389.6" rx="224.4" ry="271.8"/>
		<path class="st2" d="M541.9,354.1c-19.5,3.1-33.4,17.7-29.4,42.7c4,24.9,29.9,48.3,49.4,45.1c19.5-3.1,25.3-31.6,21.2-56.5    C579.2,360.4,561.5,351,541.9,354.1z"/>
		<path class="st3" d="M552.9,358.6c-19.3,5.3-32.5,18.8-29.2,39.3c3.2,19.6,25.1,37.5,45.9,40c13-10.1,17.1-31.2,14.1-50    C580.8,370,568.5,360.7,552.9,358.6z"/>
		<path class="st4" d="M863.1,358.8c-19.5-3.1-37.3,6.3-41.3,31.3c-4,24.9,1.7,53.4,21.2,56.5c19.5,3.2,45.4-20.2,49.4-45.1    C896.5,376.6,882.6,362,863.1,358.8z"/>
		<path class="st5" d="M852.2,363.4c-15.7,2-27.9,11.4-30.8,29.3c-3,18.8,1.1,39.9,14.1,50c20.8-2.5,42.8-20.4,45.9-40    C884.8,382.2,871.6,368.7,852.2,363.4z"/>
		<path class="st4" d="M832,630.4c-67.2-9.6-95.5-21.8-95.5-91.8h-34h-34c0,70-28.2,82.2-95.5,91.8    c-104.3,14.9-108.9,72.8-118.2,136.7c0,129.3,495.4,129.3,495.4,0h0C940.9,703.2,936.3,645.3,832,630.4z"/>
		<path class="st2" d="M702.5,538.6h-34c0,7.7-0.3,14.8-1,21.2c13.8,8,26,12.5,35,12.5c9,0,21.2-4.4,35-12.5c-0.7-6.4-1-13.4-1-21.2    H702.5z"/>
		<path class="st4" d="M680.2,183.6c-86,8.8-164.2,68.4-145.5,178.8c17.7,104.4,126.7,197.3,167.8,197.3    c41.2,0,150.1-92.9,167.8-197.3C892.4,232.9,781,173.3,680.2,183.6z"/>
		<path class="st6" d="M699.2,448.4c4.2,5.4,14.3-5.5,14.3-10.4C713.6,435.6,680.3,424.1,699.2,448.4z"/>
		<path class="st6" d="M702.7,491c-16.5,0-22,2.7-22,6.2c0,18.3,41.7,20.2,43.7,0.3C724.8,493.8,719.5,491,702.7,491z"/>
		<path class="st7" d="M707.9,469.5c-8.8,1.9-2,1.9-10.8,0c-5.9-1.3-8.1,13.2-25,13.5c31.5,6.6,29.3,6.6,60.8,0    C716.1,482.7,713.8,468.2,707.9,469.5z"/>
		<path class="st7" d="M671.2,482.9c12,17.4,21.7,25.3,31.4,24.8c9.7,0.4,19.4-7.5,31.4-24.8l-31.4,6.7L671.2,482.9z"/>
		<path class="st8" d="M702.5,475.1c-11.5-0.2-16.8,8.8-31.4,7.9c17.6,17.8,45.1,17.8,62.8,0C719.3,483.9,714.1,474.9,702.5,475.1z"/>
		<path class="st9" d="M685.1,480.6c4.3,2.3,10.5,3.7,17.4,3.7c6.9,0,13.1-1.4,17.4-3.7c-5.8-2.4-10.5-5.6-17.4-5.5    C695.6,475,690.9,478.2,685.1,480.6z"/>
		<g>
			<path class="st1" d="M564.5,320.1c20.7-2,63.5-3.9,87.1-0.7c6.9,0.9,16.9,8.2,18.2,3.9C674.5,307.1,582.8,314.5,564.5,320.1z"/>
			<path class="st1" d="M735.4,323.3c1.3,4.4,11.3-2.9,18.2-3.9c23.6-3.2,66.4-1.3,87.1,0.7C822.3,314.5,730.6,307.1,735.4,323.3z"/>
		</g>
		<path class="st6" d="M605.5,331.5c-13.8,3.5-32.2,11-42.6-0.7c1.8,12.8,6,15.7,11.4,17.7l0.4,1.3c14.4,47.6,49.6,51,90.5,35    C668.8,349.8,652.4,319.5,605.5,331.5z"/>
		<path class="st9" d="M606.1,338.6c-13.5,2.9-23.3,9-34.9,1.9c2.6,10.2,11.5,76.8,93.9,44.6C664.9,337.3,632.9,332.9,606.1,338.6z"/>
		<path class="st1" d="M604.8,337.3c-3.9,1-8.2,2.1-12.6,2.9c-4.7-1.4-9.8-3-12.3-6.3c0,2.8,1.9,5.3,4.8,7.3c-1.4,0.1-2.7,0.1-4,0.1    c-2.8-1.6-5.3-3.6-7.5-6.5c0,2.2,1,4.3,2.7,6.1c-5-0.8-9.6-2.7-13.1-6.7c1.7,12.3,5.8,15.2,11,17.1c3.7,12.9,12,32.5,33.3,39.7    c-11.6-5.1-25.5-20.7-29.6-38.9c29.3-0.4,81.5-31.6,87.6,32.9C664.5,335.6,630.7,330.7,604.8,337.3z"/>
		<path class="st10" d="M636.2,366.4c-2,1.9-4.3,3.4-6.8,4.5c0.4,2,2.2,3.5,4.3,3.5c2.4,0,4.4-2,4.4-4.4    C638.1,368.5,637.4,367.2,636.2,366.4z"/>
		<path class="st8" d="M629.4,370c0,0.9,0.3,1.8,0.8,2.5c2.5-1.4,4.6-3.7,5.8-6.3c-0.6-0.4-1.4-0.6-2.2-0.6    C631.3,365.6,629.4,367.6,629.4,370z"/>
		<path class="st6" d="M797.1,331.9c-46.9-12-63.4,18.3-59.6,53.3c40.9,16,76.1,12.6,90.5-35l0.4-1.3c5.4-1.9,9.6-4.9,11.4-17.7    C829.4,342.9,810.9,335.4,797.1,331.9z"/>
		<path class="st9" d="M796.5,338.6c-26.8-5.7-58.8-1.4-59,46.5c82.4,32.2,91.2-34.4,93.9-44.6C819.8,347.6,809.9,341.5,796.5,338.6    z"/>
		<g>
			<g>
				
					<ellipse transform="matrix(1 -7.302960e-03 7.302960e-03 1 -2.6866 4.571)" class="st11" cx="624.6" cy="370.2" rx="23.8" ry="23.8"/>
				<path class="st10" d="M645,358.6c0.1,13.1-10.5,23.9-23.6,24c-8.7,0.1-16.4-4.6-20.6-11.5c0.5,12.8,11.1,23,24,22.9      c13.1-0.1,23.7-10.8,23.6-24c0-4.4-1.3-8.6-3.4-12.1L645,358.6z"/>
				
					<ellipse transform="matrix(1 -7.302919e-03 7.302919e-03 1 -2.6865 4.5709)" class="st8" cx="624.6" cy="370.2" rx="13.9" ry="13.9"/>
				<circle class="st12" cx="635" cy="379.8" r="4.4"/>
				
					<ellipse transform="matrix(1 -7.303755e-03 7.303755e-03 1 -2.6471 4.4986)" class="st12" cx="614.6" cy="364.7" rx="8.8" ry="8.8"/>
				<path class="st13" d="M619.3,357.3c-5.1,2.1-8.7,7.1-8.6,13c0,0.8,0.1,1.6,0.2,2.3c1.2,0.5,2.4,0.8,3.8,0.8c4.8,0,8.7-4,8.7-8.8      C623.3,361.5,621.7,358.8,619.3,357.3z"/>
			</g>
			<g>
				
					<ellipse transform="matrix(7.345275e-03 -1 1 7.345275e-03 404.6542 1147.9431)" class="st11" cx="780.5" cy="370.2" rx="23.8" ry="23.8"/>
				<path class="st10" d="M783.7,382.6c-13.1-0.1-23.7-10.8-23.6-24l0-0.8c-2.1,3.5-3.4,7.7-3.4,12.1c-0.1,13.1,10.5,23.9,23.6,24      c12.9,0.1,23.5-10.1,24-22.9C800.1,378,792.5,382.7,783.7,382.6z"/>
				
					<ellipse transform="matrix(7.307308e-03 -1 1 7.307308e-03 404.6829 1147.9583)" class="st8" cx="780.5" cy="370.2" rx="13.9" ry="13.9"/>
				
					<ellipse transform="matrix(7.415257e-03 -1 1 7.415257e-03 419.9629 1152.4332)" class="st12" cx="790.5" cy="364.7" rx="8.8" ry="8.8"/>
				<path class="st13" d="M785.8,357.3c-2.4,1.5-4,4.2-4.1,7.3c0,4.8,3.9,8.8,8.7,8.8c1.4,0,2.6-0.3,3.8-0.8      c0.1-0.8,0.2-1.5,0.2-2.3C794.5,364.4,790.9,359.4,785.8,357.3z"/>
			</g>
		</g>
		<path class="st1" d="M826.7,340.9c1.7-1.8,2.7-3.9,2.7-6.1c-2.1,2.9-4.6,4.9-7.5,6.5c-1.3,0-2.7,0-4-0.1c2.8-2,4.8-4.5,4.8-7.3    c-2.5,3.4-7.5,5-12.3,6.3c-4.4-0.8-8.7-1.9-12.6-2.9c-25.9-6.6-59.8-1.7-60.3,47.8c6.1-64.6,58.3-33.3,87.6-32.9    c-4.1,18.2-18,33.8-29.6,38.9c21.3-7.2,29.6-26.8,33.3-39.7c5.2-1.9,9.3-4.7,11-17.1C836.3,338.2,831.7,340.2,826.7,340.9z"/>
		<g>
			<circle class="st14" cx="619.5" cy="424.7" r="11.6"/>
			<circle class="st7" cx="619.5" cy="424.7" r="6.1"/>
			<path class="st15" d="M617,420.2c-0.9,0-2,1.2-2.3,2.6c-0.4,1.5,0.1,2.6,1,2.6c0.9,0,2-1.2,2.3-2.6     C618.3,421.4,617.9,420.2,617,420.2z"/>
		</g>
		<g>
			<circle class="st14" cx="647.9" cy="436.5" r="7.1"/>
			<circle class="st7" cx="647.9" cy="436.5" r="3.8"/>
			<path class="st15" d="M646.3,433.7c-0.6,0-1.2,0.7-1.4,1.6c-0.2,0.9,0.1,1.6,0.6,1.6c0.6,0,1.2-0.7,1.4-1.6     C647.2,434.4,646.9,433.7,646.3,433.7z"/>
		</g>
		<g>
			<circle class="st14" cx="628.6" cy="454.3" r="7.1"/>
			<circle class="st7" cx="628.6" cy="454.3" r="3.8"/>
			<path class="st15" d="M627,451.6c-0.6,0-1.2,0.7-1.4,1.6c-0.2,0.9,0.1,1.6,0.6,1.6c0.6,0,1.2-0.7,1.4-1.6     C627.9,452.3,627.6,451.6,627,451.6z"/>
		</g>
		<g>
			<circle class="st14" cx="785.2" cy="444.3" r="6.8"/>
			<circle class="st7" cx="785.2" cy="444.3" r="3.6"/>
			<path class="st15" d="M783.8,441.7c-0.5,0-1.2,0.7-1.4,1.6c-0.2,0.9,0.1,1.6,0.6,1.6c0.5,0,1.2-0.7,1.4-1.6     C784.6,442.4,784.3,441.7,783.8,441.7z"/>
		</g>
		<g>
			<circle class="st14" cx="801.9" cy="451.2" r="4.2"/>
			<circle class="st7" cx="801.9" cy="451.2" r="2.2"/>
			<path class="st15" d="M801,449.5c-0.3,0-0.7,0.4-0.8,1c-0.1,0.5,0,1,0.4,1c0.3,0,0.7-0.4,0.8-1C801.5,450,801.3,449.5,801,449.5z     "/>
		</g>
		<g>
			<circle class="st14" cx="790.6" cy="461.6" r="4.2"/>
			<circle class="st7" cx="790.6" cy="461.6" r="2.2"/>
			<path class="st15" d="M789.7,460c-0.3,0-0.7,0.4-0.8,1c-0.1,0.5,0,1,0.4,1c0.3,0,0.7-0.4,0.8-1C790.2,460.4,790,460,789.7,460z"/>
		</g>
		<path class="st1" d="M681.6,156.6c-81.9-18-159.7,45.2-173.9,141.3c-3.4,23.1-2.8,45.9,1.2,67.6c2.1,0.6,4.1,1.1,6.2,1.5    c81.9,18,159.7-45.2,173.9-141.3c3.4-23.1,2.8-45.9-1.2-67.6C685.8,157.6,683.7,157.1,681.6,156.6z"/>
		<path class="st1" d="M702.5,117.8c-26.5,0-52,5.6-75.6,15.8c52.6,139.4,182.6,251.6,299.9,259.5c0-1.2,0-2.3,0-3.5    C926.9,239.5,826.5,117.8,702.5,117.8z"/>
	</g>
	<g>
		<g>
			<circle class="st16" cx="242.2" cy="226.6" r="110.6"/>
			<circle class="st0" cx="242.2" cy="226.6" r="76.4"/>
			<path class="st17" d="M269.4,119.9c-9.3-2.4-18.7,3.3-21.1,12.5c-2.4,9.3,3.3,18.7,12.5,21.1c16.7,4.3,30.9,13.9,40.8,26.7     c10,12.9,15.8,29,15.8,46.3c0,9.6,7.8,17.4,17.4,17.4c9.6,0,17.4-7.8,17.4-17.4c0-25.1-8.5-48.6-23.1-67.4     C314.5,140.3,293.8,126.2,269.4,119.9z"/>
			<path class="st18" d="M242.2,150.1c-14.2,0-27.4,3.9-38.8,10.6c41.7,0.6,75.4,34.6,75.4,76.4c0,28-15.1,52.6-37.6,65.9     c0.3,0,0.7,0,1,0c42.2,0,76.4-34.2,76.4-76.4C318.6,184.4,284.4,150.1,242.2,150.1z"/>
			<path class="st19" d="M139.7,219.6c0-31.8,13.4-60.4,34.8-80.6c-26.1,20.2-43,51.9-43,87.5c0,61.1,49.5,110.6,110.6,110.6     c29.3,0,56-11.4,75.8-30c-18.7,14.5-42.2,23.1-67.6,23.1C189.2,330.3,139.7,280.7,139.7,219.6z"/>
			<path class="st20" d="M242.2,203c-11,0-7.1,10-75.3,10.1c-0.8,4.4-1.2,8.9-1.2,13.4c0,42.2,34.2,76.4,76.4,76.4     c42.2,0,76.4-34.2,76.4-76.4c0-4.6-0.4-9.1-1.2-13.4C249.3,213.1,253.2,203,242.2,203z"/>
			<path class="st21" d="M318.6,224.5c0-0.6,0-1.2-0.1-1.7l0-0.1l0-0.1c0-0.6-0.1-1.1-0.1-1.7l0-0.2l0-0.2c0-0.5-0.1-1-0.1-1.5     l0-0.3c-0.1-0.5-0.1-1.1-0.2-1.6l0-0.3l0,0l0-0.2c-0.1-0.4-0.1-0.9-0.2-1.3l-0.1-0.4c-0.1-0.5-0.2-1-0.2-1.4l0-0.2     c-19.8,0-33.5-0.9-43.2-2.1c3,8.1,4.6,16.9,4.6,26.1c0,28-15.1,52.6-37.6,65.9c0.3,0,0.7,0,1,0c0.7,0,1.3,0,2,0v0     c0.7,0,1.3,0,2-0.1v0c0.7,0,1.3-0.1,1.9-0.1v0c0.6,0,1.3-0.1,1.9-0.2v0c0.6-0.1,1.3-0.1,1.9-0.2c0.6-0.1,1.3-0.2,1.9-0.3     c0.6-0.1,1.3-0.2,1.9-0.3v0c0.6-0.1,1.3-0.2,1.9-0.4c0.6-0.1,1.2-0.3,1.9-0.4v0c0.6-0.1,1.2-0.3,1.8-0.4c0.6-0.2,1.2-0.3,1.8-0.5     v0c0.6-0.2,1.2-0.4,1.8-0.5c0.6-0.2,1.2-0.4,1.8-0.6v0c0.6-0.2,1.2-0.4,1.8-0.6v0c0.6-0.2,1.2-0.4,1.7-0.7v0     c0.6-0.2,1.2-0.5,1.7-0.7c0.6-0.2,1.1-0.5,1.7-0.7v0c0.6-0.3,1.1-0.5,1.7-0.8c0.6-0.3,1.1-0.5,1.7-0.8c0.5-0.3,1.1-0.6,1.6-0.9v0     c0.5-0.3,1.1-0.6,1.6-0.9c0.5-0.3,1.1-0.6,1.6-0.9v0c1.6-1,3.1-2,4.6-3c0.5-0.4,1-0.7,1.5-1.1c0.5-0.4,1-0.7,1.5-1.1h0     c0.5-0.4,1-0.8,1.4-1.1v0c0.5-0.4,0.9-0.8,1.4-1.2c0.5-0.4,0.9-0.8,1.4-1.2v0c0.5-0.4,0.9-0.8,1.3-1.2c0.4-0.4,0.9-0.8,1.3-1.3     c0.4-0.4,0.9-0.9,1.3-1.3c0.4-0.4,0.8-0.9,1.2-1.3h0c0.4-0.5,0.8-0.9,1.2-1.4h0c0.4-0.5,0.8-0.9,1.2-1.4h0     c0.4-0.5,0.8-0.9,1.2-1.4v0c0.4-0.5,0.8-1,1.1-1.5c0.4-0.5,0.7-1,1.1-1.5c1.1-1.5,2.1-3,3-4.6h0c0.3-0.5,0.6-1.1,0.9-1.6     c0.3-0.5,0.6-1.1,0.9-1.6h0c0.3-0.5,0.6-1.1,0.9-1.6c0.3-0.5,0.6-1.1,0.8-1.7c0.3-0.6,0.5-1.1,0.8-1.7h0c0.3-0.6,0.5-1.1,0.7-1.7     c0.2-0.6,0.5-1.1,0.7-1.7h0c0.2-0.6,0.4-1.2,0.7-1.7c0.2-0.6,0.4-1.2,0.6-1.8h0c0.2-0.6,0.4-1.2,0.6-1.8h0     c0.2-0.6,0.4-1.2,0.5-1.8h0c0.2-0.6,0.3-1.2,0.5-1.8h0c0.2-0.6,0.3-1.2,0.4-1.8c0.1-0.6,0.3-1.2,0.4-1.9h0     c0.1-0.6,0.2-1.2,0.4-1.9c0.1-0.6,0.2-1.3,0.3-1.9c0.1-0.6,0.2-1.3,0.3-1.9c0.1-0.6,0.2-1.3,0.2-1.9h0c0.1-0.6,0.1-1.3,0.2-1.9     c0.1-0.6,0.1-1.3,0.1-1.9h0c0-0.6,0.1-1.3,0.1-2h0c0-0.7,0-1.3,0-2v-0.1c0-0.6,0-1.2,0-1.8L318.6,224.5z"/>
			<path class="st4" d="M242.2,208.8c-11.1,0-7,10.1-76.1,10.1c-0.3,2.5-0.4,5.1-0.4,7.7c0,42.2,34.2,76.4,76.4,76.4     c42.2,0,76.4-34.2,76.4-76.4c0-2.6-0.1-5.1-0.4-7.7C249.2,218.9,253.3,208.8,242.2,208.8z"/>
			<path class="st22" d="M318.6,224.5l0-0.1l0-0.1c0-0.5,0-1-0.1-1.4l0-0.1l0-0.1l0-0.1c0-0.5-0.1-1-0.1-1.4l0-0.1l0-0.1l0-0.2     l0-0.1l0-0.1c0-0.4-0.1-0.9-0.1-1.3l0-0.1c-19,0-32.4-0.8-42.2-1.9c1.7,6.4,2.7,13.1,2.7,20.1c0,28-15.1,52.6-37.6,65.9     c0.3,0,0.7,0,1,0c0.7,0,1.3,0,2,0v0c0.7,0,1.3,0,2-0.1v0c0.7,0,1.3-0.1,1.9-0.1v0c0.6,0,1.3-0.1,1.9-0.2v0     c0.6-0.1,1.3-0.1,1.9-0.2c0.6-0.1,1.3-0.2,1.9-0.3c0.6-0.1,1.3-0.2,1.9-0.3v0c0.6-0.1,1.3-0.2,1.9-0.4c0.6-0.1,1.2-0.3,1.9-0.4v0     c0.6-0.1,1.2-0.3,1.8-0.4c0.6-0.2,1.2-0.3,1.8-0.5v0c0.6-0.2,1.2-0.4,1.8-0.5c0.6-0.2,1.2-0.4,1.8-0.6v0c0.6-0.2,1.2-0.4,1.8-0.6     v0c0.6-0.2,1.2-0.4,1.7-0.7v0c0.6-0.2,1.2-0.5,1.7-0.7c0.6-0.2,1.1-0.5,1.7-0.7v0c0.6-0.3,1.1-0.5,1.7-0.8     c0.6-0.3,1.1-0.5,1.7-0.8c0.5-0.3,1.1-0.6,1.6-0.9v0c0.5-0.3,1.1-0.6,1.6-0.9c0.5-0.3,1.1-0.6,1.6-0.9v0c1.6-1,3.1-2,4.6-3     c0.5-0.4,1-0.7,1.5-1.1c0.5-0.4,1-0.7,1.5-1.1h0c0.5-0.4,1-0.8,1.4-1.1v0c0.5-0.4,0.9-0.8,1.4-1.2c0.5-0.4,0.9-0.8,1.4-1.2v0     c0.5-0.4,0.9-0.8,1.3-1.2c0.4-0.4,0.9-0.8,1.3-1.3c0.4-0.4,0.9-0.9,1.3-1.3c0.4-0.4,0.8-0.9,1.2-1.3h0c0.4-0.5,0.8-0.9,1.2-1.4h0     c0.4-0.5,0.8-0.9,1.2-1.4h0c0.4-0.5,0.8-0.9,1.2-1.4v0c0.4-0.5,0.8-1,1.1-1.5c0.4-0.5,0.7-1,1.1-1.5c1.1-1.5,2.1-3,3-4.6h0     c0.3-0.5,0.6-1.1,0.9-1.6c0.3-0.5,0.6-1.1,0.9-1.6h0c0.3-0.5,0.6-1.1,0.9-1.6c0.3-0.5,0.6-1.1,0.8-1.7c0.3-0.6,0.5-1.1,0.8-1.7h0     c0.3-0.6,0.5-1.1,0.7-1.7c0.2-0.6,0.5-1.1,0.7-1.7h0c0.2-0.6,0.4-1.2,0.7-1.7c0.2-0.6,0.4-1.2,0.6-1.8h0c0.2-0.6,0.4-1.2,0.6-1.8     h0c0.2-0.6,0.4-1.2,0.5-1.8h0c0.2-0.6,0.3-1.2,0.5-1.8h0c0.2-0.6,0.3-1.2,0.4-1.8c0.1-0.6,0.3-1.2,0.4-1.9h0     c0.1-0.6,0.2-1.2,0.4-1.9c0.1-0.6,0.2-1.3,0.3-1.9c0.1-0.6,0.2-1.3,0.3-1.9c0.1-0.6,0.2-1.3,0.2-1.9h0c0.1-0.6,0.1-1.3,0.2-1.9     c0.1-0.6,0.1-1.3,0.1-1.9h0c0-0.6,0.1-1.3,0.1-2h0c0-0.7,0-1.3,0-2v-0.1c0-0.6,0-1.1,0-1.7L318.6,224.5z"/>
			<path class="st23" d="M242.2,208.8c-5.1,0-7,2.1-14.2,4.4c-2.1,5.5-3.3,12.3-3.3,19.7c0,18.6,7.9,33.7,17.5,33.7     c9.7,0,17.5-15.1,17.5-33.7c0-7.4-1.2-14.2-3.3-19.7C249.2,210.9,247.3,208.8,242.2,208.8z"/>
			<ellipse class="st24" cx="242.2" cy="232.9" rx="9.8" ry="18.8"/>
		</g>
		<g>
			<circle class="st16" cx="242.2" cy="490" r="110.6"/>
			<path class="st17" d="M269.4,383.4c-9.3-2.4-18.7,3.3-21.1,12.5c-2.4,9.3,3.3,18.7,12.5,21.1c16.7,4.3,30.9,13.9,40.8,26.7     c10,12.9,15.8,29,15.8,46.3c0,9.6,7.8,17.4,17.4,17.4c9.6,0,17.4-7.8,17.4-17.4c0-25.1-8.5-48.6-23.1-67.4     C314.5,403.7,293.8,389.6,269.4,383.4z"/>
			<path class="st19" d="M139.7,483.1c0-31.8,13.4-60.4,34.8-80.6c-26.1,20.2-43,51.9-43,87.5c0,61.1,49.5,110.6,110.6,110.6     c29.3,0,56-11.4,75.8-30c-18.7,14.5-42.2,23.1-67.6,23.1C189.2,593.7,139.7,544.2,139.7,483.1z"/>
			<circle class="st9" cx="242.2" cy="490" r="76.4"/>
			<path class="st18" d="M242.2,413.6c-14.2,0-27.4,3.9-38.8,10.6c41.7,0.6,75.4,34.6,75.4,76.4c0,28-15.1,52.6-37.6,65.9     c0.3,0,0.7,0,1,0c42.2,0,76.4-34.2,76.4-76.4C318.6,447.8,284.4,413.6,242.2,413.6z"/>
			<path class="st4" d="M248.7,482.3c0.6,1.7,1.1,3.7,1.3,5.8c0.7,2.4,1.1,5.3,1.1,8.2c0,9.4-4,17.1-8.9,17.1     c-4.9,0-8.9-7.6-8.9-17.1c0-3,0.4-5.8,1.1-8.2c0.2-2.1,0.7-4.1,1.3-5.8h-69.6c-0.3,2.5-0.4,5.1-0.4,7.7     c0,42.2,34.2,76.4,76.4,76.4c42.2,0,76.4-34.2,76.4-76.4c0-2.6-0.1-5.1-0.4-7.7H248.7z"/>
			<path class="st22" d="M318.6,487.9l0-0.1l0-0.1c0-0.5,0-1-0.1-1.4l0,0l0-0.1l0-0.1l0-0.1l0-0.1c0-0.4-0.1-0.9-0.1-1.3l0-0.1     l0-0.1l0-0.4l0-0.1l0-0.1l-0.1-1.1l0-0.1l0-0.1h-41.7c1.4,5.8,2.2,11.9,2.2,18.2c0,28-15.1,52.6-37.6,65.9c0.3,0,0.7,0,1,0     c0.7,0,1.3,0,2,0v0c0.7,0,1.3,0,2-0.1c0.7,0,1.3-0.1,1.9-0.1c0.6-0.1,1.3-0.1,1.9-0.2v0c0.6-0.1,1.3-0.1,1.9-0.2     c0.6-0.1,1.3-0.2,1.9-0.3c0.6-0.1,1.3-0.2,1.9-0.3c0.6-0.1,1.3-0.2,1.9-0.4v0c0.6-0.1,1.2-0.3,1.9-0.4v0c0.6-0.1,1.2-0.3,1.8-0.4     c0.6-0.2,1.2-0.3,1.8-0.5c0.6-0.2,1.2-0.3,1.8-0.5c0.6-0.2,1.2-0.4,1.8-0.6v0c0.6-0.2,1.2-0.4,1.8-0.6v0c0.6-0.2,1.2-0.4,1.7-0.7     c0.6-0.2,1.2-0.5,1.7-0.7c0.6-0.2,1.1-0.5,1.7-0.7c0.6-0.3,1.1-0.5,1.7-0.8c0.6-0.3,1.1-0.5,1.7-0.8c0.5-0.3,1.1-0.6,1.6-0.9     c0.5-0.3,1.1-0.6,1.6-0.9c0.5-0.3,1.1-0.6,1.6-0.9v0c1.6-1,3.1-2,4.6-3c0.5-0.4,1-0.7,1.5-1.1c0.5-0.4,1-0.7,1.5-1.1h0     c0.5-0.4,1-0.8,1.4-1.1v0c0.5-0.4,0.9-0.8,1.4-1.2c0.5-0.4,0.9-0.8,1.4-1.2c0.5-0.4,0.9-0.8,1.3-1.2c0.4-0.4,0.9-0.9,1.3-1.3     c0.4-0.4,0.9-0.9,1.3-1.3c0.4-0.4,0.8-0.9,1.2-1.3h0c0.4-0.5,0.8-0.9,1.2-1.4h0c0.4-0.5,0.8-0.9,1.2-1.4h0     c0.4-0.5,0.8-0.9,1.1-1.4v0c0.4-0.5,0.8-1,1.1-1.5c0.4-0.5,0.7-1,1.1-1.5c1.1-1.5,2.1-3,3-4.6h0c0.3-0.5,0.6-1.1,0.9-1.6     c0.3-0.5,0.6-1.1,0.9-1.6h0c0.3-0.5,0.6-1.1,0.9-1.6c0.3-0.5,0.6-1.1,0.8-1.7c0.3-0.6,0.5-1.1,0.8-1.7h0c0.3-0.6,0.5-1.1,0.7-1.7     c0.2-0.6,0.5-1.1,0.7-1.7h0c0.2-0.6,0.4-1.2,0.7-1.7h0c0.2-0.6,0.4-1.2,0.6-1.8h0c0.2-0.6,0.4-1.2,0.6-1.8h0     c0.2-0.6,0.4-1.2,0.5-1.8h0c0.2-0.6,0.3-1.2,0.5-1.8h0c0.2-0.6,0.3-1.2,0.4-1.8c0.1-0.6,0.3-1.2,0.4-1.9h0     c0.1-0.6,0.2-1.2,0.4-1.9h0c0.1-0.6,0.2-1.3,0.3-1.9c0.1-0.6,0.2-1.3,0.3-1.9c0.1-0.6,0.2-1.3,0.2-1.9h0c0.1-0.6,0.1-1.3,0.2-1.9     c0.1-0.6,0.1-1.3,0.1-1.9h0c0-0.7,0.1-1.3,0.1-2h0c0-0.7,0-1.3,0-2v-0.1c0-0.6,0-1.1,0-1.7L318.6,487.9z"/>
			<path class="st20" d="M247.4,479.6c1.3,2.2,2.2,5.1,2.6,8.5c0.7,2.4,1.1,5.3,1.1,8.2c0,9.4-4,17.1-8.9,17.1     c-4.9,0-8.9-7.6-8.9-17.1c0-3,0.4-5.8,1.1-8.2c0.4-3.4,1.3-6.3,2.6-8.5h-70.5c-0.2,1.8-0.4,3.6-0.5,5.5c0.1,0,0.1,0,0.2,0h65.3     c-0.3,1-0.6,2-0.9,3c-0.6,2.5-0.9,5.4-0.9,8.3c0,5.6,1.2,10.8,3.2,14.5c2.2,4.3,5.5,7,9.3,7c3.8,0,7.1-2.7,9.3-7     c2-3.8,3.2-8.9,3.2-14.5c0-2.9-0.3-5.7-0.9-8.3c-0.2-1-0.5-2-0.9-3h65.3c0.1,0,0.1,0,0.2,0c-0.1-1.8-0.3-3.7-0.5-5.5H247.4z"/>
			<path class="st25" d="M318.5,484.9c0-0.5-0.1-1-0.1-1.5l0-0.1l0-0.1l0-0.1c-0.1-0.6-0.1-1.3-0.2-1.9l0-0.1l0-0.1l0-0.1     c-0.1-0.5-0.1-0.9-0.2-1.4h-42.1c0.5,1.8,1,3.6,1.3,5.5h41c0.1,0,0.1,0,0.2,0L318.5,484.9L318.5,484.9z"/>
			<path class="st24" d="M236.1,487.6c-0.6,2-1,4.4-1,7c0,7.5,3.2,13.6,7.1,13.6c3.9,0,7.1-6.1,7.1-13.6c0-2.5-0.4-4.9-1-7H236.1z"/>
			<polygon class="st26" points="231.9,454.5 210.8,442.4 208.4,446.5 229.5,458.7 228.2,461 240.6,462.3 233.2,452.3    "/>
			<polygon class="st26" points="244.6,446.2 244.6,421.9 239.8,421.9 239.8,446.2 237.2,446.2 242.2,457.6 247.2,446.2    "/>
			<polygon class="st26" points="227.5,466.7 203.2,466.7 203.2,471.5 227.5,471.5 227.5,474.2 238.9,469.1 227.5,464.1    "/>
			<polygon class="st26" points="256.9,464.1 245.4,469.1 256.9,474.2 256.9,471.5 281.2,471.5 281.2,466.7 256.9,466.7    "/>
			<polygon class="st26" points="254.9,458.7 276,446.5 273.5,442.4 252.5,454.5 251.2,452.3 243.8,462.3 256.2,461    "/>
			<path class="st27" d="M239.8,433.9c1.6,0.9,3.3,1.9,4.8,3v-15h-4.8V433.9z"/>
			<path class="st27" d="M273.1,471.5h8.1v-4.8h-10.3C271.7,468.3,272.4,469.9,273.1,471.5z"/>
			<path class="st27" d="M273.5,442.4l-13.7,7.9c1.1,1.2,2.1,2.5,3.1,3.8l13-7.5L273.5,442.4z"/>
		</g>
		<g>
			<circle class="st16" cx="242.2" cy="753.4" r="110.6"/>
			<path class="st17" d="M269.4,646.8c-9.3-2.4-18.7,3.3-21.1,12.5c-2.4,9.3,3.3,18.7,12.5,21.1c16.7,4.3,30.9,13.9,40.8,26.7     c10,12.9,15.8,29,15.8,46.3c0,9.6,7.8,17.4,17.4,17.4c9.6,0,17.4-7.8,17.4-17.4c0-25.1-8.5-48.6-23.1-67.4     C314.5,667.1,293.8,653,269.4,646.8z"/>
			<path class="st19" d="M139.7,746.5c0-31.8,13.4-60.4,34.8-80.6c-26.1,20.2-43,51.9-43,87.5c0,61.1,49.5,110.6,110.6,110.6     c29.3,0,56-11.4,75.8-30c-18.7,14.5-42.2,23.1-67.6,23.1C189.2,857.1,139.7,807.6,139.7,746.5z"/>
			<circle class="st9" cx="242.2" cy="753.4" r="76.4"/>
			<path class="st18" d="M242.2,677c-14.2,0-27.4,3.9-38.8,10.6c41.7,0.6,75.4,34.6,75.4,76.4c0,28-15.1,52.6-37.6,65.9     c0.3,0,0.7,0,1,0c42.2,0,76.4-34.2,76.4-76.4C318.6,711.2,284.4,677,242.2,677z"/>
			<path class="st26" d="M167.3,738.1h8.8v-4.8h-7.6C168,734.9,167.6,736.5,167.3,738.1z"/>
			<rect x="178.9" y="733.3" class="st26" width="20.1" height="4.8"/>
			<polygon class="st26" points="226.4,733.3 202.1,733.3 202.1,738.1 226.4,738.1 226.4,740.7 237.8,735.7 226.4,730.6    "/>
			<path class="st26" d="M308.3,733.3v4.8h8.8c-0.3-1.6-0.7-3.2-1.2-4.8H308.3z"/>
			<polygon class="st26" points="258,730.6 246.5,735.7 258,740.7 258,738.1 282.3,738.1 282.3,733.3 258,733.3    "/>
			<rect x="285.3" y="733.3" class="st26" width="20.1" height="4.8"/>
			<path class="st27" d="M274.3,738.1h8v-4.8h-10C273,734.8,273.7,736.5,274.3,738.1z"/>
			<rect x="285.3" y="733.3" class="st27" width="20.1" height="4.8"/>
			<path class="st27" d="M317,737.7L317,737.7l0-0.2l-0.2-0.8l0-0.1l0-0.1l0-0.1l-0.2-0.8l0-0.1l0-0.1l0-0.1l0-0.1l0-0.1l0-0.1     l0-0.1l0-0.1l0-0.1c-0.1-0.6-0.3-1.2-0.4-1.7h-7.6v4.8h8.8L317,737.7L317,737.7z"/>
			<path class="st4" d="M248.7,745.8c0.6,1.7,1.1,3.7,1.3,5.8c0.7,2.4,1.1,5.3,1.1,8.2c0,9.4-4,17.1-8.9,17.1     c-4.9,0-8.9-7.6-8.9-17.1c0-3,0.4-5.8,1.1-8.2c0.2-2.1,0.7-4.1,1.3-5.8h-69.6c-0.3,2.5-0.4,5.1-0.4,7.7     c0,42.2,34.2,76.4,76.4,76.4c42.2,0,76.4-34.2,76.4-76.4c0-2.6-0.1-5.1-0.4-7.7H248.7z"/>
			<path class="st22" d="M318.6,751.4l0-0.1l0-0.1c0-0.5,0-1-0.1-1.4l0,0l0-0.1l0-0.1l0-0.1l0-0.1c0-0.4,0-0.9-0.1-1.3l0-0.1l0-0.1     l0-0.4l0-0.1l0-0.1l-0.1-1.1l0-0.1l0-0.1h-41.7c1.4,5.8,2.2,12,2.2,18.2c0,28-15.1,52.6-37.6,65.9c0.3,0,0.7,0,1,0     c0.7,0,1.3,0,2,0v0c0.7,0,1.3,0,2-0.1c0.7,0,1.3-0.1,1.9-0.1c0.6,0,1.3-0.1,1.9-0.2v0c0.6-0.1,1.3-0.1,1.9-0.2     c0.6-0.1,1.3-0.2,1.9-0.3c1.3-0.2,2.5-0.4,3.8-0.7c1.9-0.4,3.7-0.8,5.5-1.3c1.8-0.5,3.6-1.1,5.4-1.7v0c0.6-0.2,1.2-0.4,1.7-0.7v0     c0.6-0.2,1.2-0.5,1.7-0.7c0.6-0.2,1.1-0.5,1.7-0.7c0.6-0.3,1.1-0.5,1.7-0.8c1.7-0.8,3.3-1.7,4.9-2.6v0c3.7-2.1,7.3-4.6,10.6-7.3     c3.8-3.1,7.2-6.6,10.4-10.4h0c2.7-3.3,5.2-6.8,7.3-10.6c0.9-1.6,1.8-3.2,2.6-4.9c0.3-0.6,0.5-1.1,0.8-1.7h0     c0.3-0.6,0.5-1.1,0.7-1.7c0.2-0.6,0.5-1.1,0.7-1.7h0c0.2-0.6,0.4-1.2,0.7-1.7h0c0.6-1.8,1.2-3.5,1.7-5.4c0.5-1.8,1-3.7,1.3-5.5     c0.3-1.2,0.5-2.5,0.7-3.8c0.1-0.6,0.2-1.3,0.3-1.9c0.1-0.6,0.2-1.3,0.2-1.9h0c0.1-0.6,0.1-1.3,0.2-1.9c0-0.6,0.1-1.3,0.1-1.9h0     c0-0.6,0.1-1.3,0.1-2c0-0.7,0-1.3,0-2v-0.1c0-0.6,0-1.1,0-1.7L318.6,751.4z"/>
			<path class="st20" d="M244.8,743c4.7,7.9,8.6,33.8-2.6,33.8c-11.2,0-7.7-25.9-3-33.8h-72.7c-0.2,1.8-0.4,3.6-0.5,5.4     c0.1,0,0.1,0,0.2,0h65.3c-2.7,7.8-2.4,18.5,1.4,25.8c2.2,4.3,5.5,7,9.3,7c3.8,0,7.1-2.7,9.3-7c3.8-7.3,4.1-18,1.4-25.8h65.3     c0.1,0,0.1,0,0.2,0c-0.1-1.8-0.3-3.7-0.5-5.4H244.8z"/>
			<path class="st25" d="M275.9,743c0.5,1.8,1,3.6,1.3,5.5h41c0.1,0,0.1,0,0.2,0c-0.1-1.8-0.3-3.7-0.5-5.4H275.9z"/>
		</g>
	</g>
	<g>
		<circle class="st16" cx="1157.8" cy="226.6" r="110.6"/>
		<circle class="st4" cx="1157.8" cy="226.6" r="76.4"/>
		<path class="st17" d="M1185.1,119.9c-9.3-2.4-18.7,3.3-21.1,12.5c-2.4,9.3,3.3,18.7,12.5,21.1c16.7,4.3,30.9,13.9,40.8,26.7    c10,12.9,15.8,29,15.8,46.3c0,9.6,7.8,17.4,17.4,17.4c9.6,0,17.3-7.8,17.3-17.4c0-25.1-8.5-48.6-23.1-67.4    C1230.1,140.3,1209.4,126.2,1185.1,119.9z"/>
		<path class="st18" d="M1157.8,150.1c-14.2,0-27.4,3.9-38.8,10.6c41.7,0.6,75.4,34.6,75.4,76.4c0,28-15.1,52.6-37.6,65.9    c0.3,0,0.7,0,1,0c42.2,0,76.4-34.2,76.4-76.4C1234.3,184.4,1200,150.1,1157.8,150.1z"/>
		<path class="st19" d="M1055.3,219.6c0-31.8,13.4-60.4,34.8-80.6c-26.1,20.2-43,51.9-43,87.5c0,61.1,49.5,110.6,110.6,110.6    c29.3,0,56-11.4,75.8-30c-18.7,14.5-42.2,23.1-67.6,23.1C1104.8,330.3,1055.3,280.7,1055.3,219.6z"/>
		<path class="st28" d="M1214.5,218.4c-2.9-1.2-4,0.5-5.2,2.4c-0.8,1.3-1.8,2.8-4.2,1.8c-5.5-2.3-16.2-1-25.7,0.7    c-0.1,0-0.1,0-0.2,0c-3.4,0.6-6.7,1.3-9.5,1.9c-2.5,0.5-4.6,0.9-6.2,1.2c-0.5-4.3-1.1-8.5,2.2-10.3c7.2-4,8.3-12.6,9.2-19.8    c0.3-2.6,0.7-5,1.2-6.9c0.8-2.6,2.3-4,5.5-3c0.5,0.2,1.1-0.1,1.3-0.7c0.2-0.5-0.1-1.1-0.7-1.3c-4.8-1.5-6.9,0.6-8.1,4.4    c-0.6,2-1,4.5-1.3,7.3c-0.7,5.5-1.6,12-5.4,16c-4-0.5-4.5-2.4-4.9-4c-0.9-3.6-1.5-6.1-16.6,0.1c-0.1,0-0.2,0-0.5-0.1    c-1.2-0.4-3-1.7-4.7-3.4c-1.7-1.7-3.3-3.7-4-5.6c-0.4-1.1-0.6-2-0.3-2.8c0.2-0.5-0.1-1.1-0.6-1.3c-0.5-0.2-1.1,0.1-1.3,0.6    c-0.4,1.3-0.2,2.7,0.4,4.2c0.9,2.1,2.6,4.4,4.5,6.3c1.9,1.9,4,3.4,5.4,3.9c0.8,0.3,1.4,0.3,2,0.1c12.8-5.3,13.2-3.7,13.8-1.6    c0.5,2,1.1,4.3,4.9,5.3c-0.3,0.2-0.5,0.3-0.8,0.5c-4.5,2.5-3.9,7.5-3.2,12.4l0.1,1v0v0l0,0l0,0l0,0v0l0,0c0.2,1.5,0.3,3,0.3,4.4    c-0.2,3.6-2,6.4-9.7,6.1c-21-9.3-21.4-6.7-21.9-4c-0.2,1.4-0.5,2.7-18.2-4.8c-0.3-0.1-0.8-0.1-1.6-0.1c-2.3,0-7.5,0-7.9-2    c-0.1-0.6-0.7-0.9-1.2-0.8c-0.6,0.1-0.9,0.7-0.8,1.2c0.8,3.5,7.1,3.6,9.9,3.6c0.5,0,0.7-0.1,0.8,0c20.1,8.6,20.6,5.9,21,3.3    c0.2-1.3,0.5-2.6,17.3,4.8c-1.2,1.3-2.4,3.5-3.9,6.3c-2.8,5.4-6.8,12.9-13.6,18.7c-0.1,0.1-0.7,0.9-1.2,1.7c-0.5,0.8-1,1.6-1,1.7    c-0.2,0.5,0.1,1.1,0.6,1.3c0.5,0.2,1.1-0.1,1.3-0.6l1.6-2.6c7.1-6,11.2-13.8,14.1-19.3c1.9-3.7,3.3-6.3,4.3-6.3l0.1,0    c9.5,0.4,11.8-3.3,12-8.1c0.1-1.2,0-2.5-0.2-3.8c1.6-0.3,3.8-0.7,6.3-1.2c2.7-0.5,5.8-1.2,9-1.8c7.5,7.2,6.8,13.4,6,19.2    c-0.7,5.6-1.3,10.7,4.5,16c0.1,0.1,0,2.8-0.1,4.2l0,1c0,0.6,0.5,1,1,1c0.6,0,1-0.5,1-1l0-0.9c0.1-1.8,0.2-5.1-0.6-5.9    c-5-4.5-4.4-9.2-3.8-14.2c0.7-6,1.6-12.5-5.6-19.9c8.7-1.5,17.9-2.4,22.6-0.5c4,1.7,5.4-0.5,6.7-2.6c0.7-1.1,1.3-2.1,2.7-1.6    c0.5,0.2,1.1,0,1.4-0.6C1215.2,219.2,1215,218.6,1214.5,218.4z"/>
	</g>
	<g>
		<circle class="st16" cx="1157.8" cy="490" r="110.6"/>
		<circle class="st4" cx="1157.8" cy="490" r="76.4"/>
		<path class="st17" d="M1185.1,383.4c-9.3-2.4-18.7,3.3-21.1,12.5c-2.4,9.3,3.3,18.7,12.5,21.1c16.7,4.3,30.9,13.9,40.8,26.7    c10,12.9,15.8,29,15.8,46.3c0,9.6,7.8,17.4,17.4,17.4c9.6,0,17.3-7.8,17.3-17.4c0-25.1-8.5-48.6-23.1-67.4    C1230.1,403.7,1209.4,389.6,1185.1,383.4z"/>
		<path class="st18" d="M1157.8,413.6c-14.2,0-27.4,3.9-38.8,10.6c41.7,0.6,75.4,34.6,75.4,76.4c0,28-15.1,52.6-37.6,65.9    c0.3,0,0.7,0,1,0c42.2,0,76.4-34.2,76.4-76.4C1234.3,447.8,1200,413.6,1157.8,413.6z"/>
		<path class="st19" d="M1055.3,483.1c0-31.8,13.4-60.4,34.8-80.6c-26.1,20.2-43,51.9-43,87.5c0,61.1,49.5,110.6,110.6,110.6    c29.3,0,56-11.4,75.8-30c-18.7,14.5-42.2,23.1-67.6,23.1C1104.8,593.7,1055.3,544.2,1055.3,483.1z"/>
		<g>
			<g>
				<circle class="st14" cx="1134.8" cy="465.9" r="22.2"/>
				<circle class="st7" cx="1134.8" cy="465.9" r="11.8"/>
				<path class="st15" d="M1130,457.2c-1.8,0-3.8,2.3-4.5,5.1c-0.7,2.8,0.2,5.1,2,5.1c1.8,0,3.8-2.3,4.5-5.1      C1132.6,459.5,1131.8,457.2,1130,457.2z"/>
			</g>
			<g>
				<path class="st14" d="M1189.4,474.7c-7.5,0-13.6,6.1-13.6,13.6c0,7.5,6.1,13.6,13.6,13.6c7.5,0,13.6-6.1,13.6-13.6      C1203,480.8,1196.9,474.7,1189.4,474.7z"/>
				<circle class="st7" cx="1189.4" cy="488.4" r="7.2"/>
				<path class="st15" d="M1186.4,483.1c-1.1,0-2.3,1.4-2.7,3.1c-0.4,1.7,0.1,3.1,1.2,3.1c1.1,0,2.3-1.4,2.7-3.1      C1188,484.5,1187.5,483.1,1186.4,483.1z"/>
			</g>
			<g>
				<circle class="st14" cx="1152.3" cy="522.7" r="13.6"/>
				<ellipse class="st7" cx="1152.3" cy="522.7" rx="7.2" ry="7.2"/>
				<path class="st15" d="M1149.3,517.4c-1.1,0-2.3,1.4-2.7,3.1c-0.4,1.7,0.1,3.1,1.2,3.1c1.1,0,2.3-1.4,2.7-3.1      C1151,518.8,1150.4,517.4,1149.3,517.4z"/>
			</g>
		</g>
	</g>
	<g>
		<ellipse class="st16" cx="1157.8" cy="753.4" rx="110.6" ry="110.6"/>
		<circle class="st4" cx="1157.8" cy="753.4" r="76.4"/>
		<path class="st17" d="M1185.1,646.8c-9.3-2.4-18.7,3.3-21.1,12.5c-2.4,9.3,3.3,18.7,12.5,21.1c16.7,4.3,30.9,13.9,40.8,26.7    c10,12.9,15.8,29,15.8,46.3c0,9.6,7.8,17.4,17.4,17.4c9.6,0,17.3-7.8,17.3-17.4c0-25.1-8.5-48.6-23.1-67.4    C1230.1,667.1,1209.4,653,1185.1,646.8z"/>
		<path class="st18" d="M1157.8,677c-14.2,0-27.4,3.9-38.8,10.6c41.7,0.6,75.4,34.6,75.4,76.4c0,28-15.1,52.6-37.6,65.9    c0.3,0,0.7,0,1,0c42.2,0,76.4-34.2,76.4-76.4C1234.3,711.2,1200,677,1157.8,677z"/>
		<path class="st19" d="M1055.3,746.5c0-31.8,13.4-60.4,34.8-80.6c-26.1,20.2-43,51.9-43,87.5c0,61.1,49.5,110.6,110.6,110.6    c29.3,0,56-11.4,75.8-30c-18.7,14.5-42.2,23.1-67.6,23.1C1104.8,857.1,1055.3,807.6,1055.3,746.5z"/>
		<path class="st29" d="M1106.4,753.1c-5.8,0-9.3,8-7.9,18c1.5,9.9,7.4,18,13.2,18c5.8,0,9.3-8,7.9-18    C1118.2,761.2,1112.3,753.1,1106.4,753.1z"/>
		<path class="st29" d="M1125.8,734c-3.9,0-6.1,3.8-5,8.6c1.1,4.7,5.1,8.6,9,8.6c3.9,0,6.1-3.8,5-8.6    C1133.8,737.8,1129.7,734,1125.8,734z"/>
		<ellipse class="st29" cx="1166.5" cy="768.1" rx="5.9" ry="7.2"/>
		<ellipse class="st29" cx="1214.5" cy="729.7" rx="8.2" ry="12.7"/>
		
			<ellipse transform="matrix(0.2139 -0.9769 0.9769 0.2139 175.15 1794.2246)" class="st29" cx="1202.4" cy="788.3" rx="7.2" ry="5.9"/>
		
			<ellipse transform="matrix(0.6433 -0.7656 0.7656 0.6433 -138.1471 1107.1755)" class="st29" cx="1119.2" cy="701.8" rx="6.7" ry="5.5"/>
	</g>
</g>
</svg>
